<svg aria-hidden="true" style="position: absolute; width: 0; height: 0; overflow: hidden;" version="1.1" xmlns="http://www.w3.org/2000/svg" xmlns:xlink="http://www.w3.org/1999/xlink">
<defs>
<symbol id="icon-logo-1-1" viewBox="0 0 346 32">
<path fill="#fbfbfb" style="fill: var(--color1, #fbfbfb)" d="M29.082 0.314h-4.010c-1.237 0-2.24 0.982-2.24 2.195v3.93c0 1.213 1.003 2.195 2.24 2.195h4.010c1.238 0 2.24-0.982 2.24-2.195v-3.93c0-1.213-1.002-2.195-2.24-2.195zM6.73 23.040h-4.317c-1.333 0-2.413 0.982-2.413 2.195v3.93c0 1.213 1.080 2.195 2.413 2.195h4.317c1.333 0 2.413-0.982 2.413-2.195v-3.93c0-1.213-1.080-2.195-2.413-2.195zM6.25 11.582h-4.010c-1.237 0-2.24 0.982-2.24 2.195v3.928c0 1.213 1.003 2.197 2.24 2.197h4.010c1.237 0 2.24-0.984 2.24-2.197v-3.928c0-1.213-1.003-2.195-2.24-2.195zM17.766 22.978h-4.010c-1.237 0-2.24 0.984-2.24 2.195v3.93c0 1.213 1.003 2.195 2.24 2.195h4.010c1.237 0 2.24-0.982 2.24-2.195v-3.93c0-1.211-1.003-2.195-2.24-2.195zM6.25 0.086h-4.010c-1.237 0-2.24 0.982-2.24 2.195v3.93c0 1.213 1.003 2.195 2.24 2.195h4.010c1.237 0 2.24-0.982 2.24-2.195v-3.93c0-1.213-1.003-2.195-2.24-2.195zM18.075 11.696h-4.008c-1.238 0-2.24 0.984-2.24 2.197v3.93c0 1.213 1.002 2.195 2.24 2.195h4.008c1.238 0 2.24-0.982 2.24-2.195v-3.93c0-1.213-1.002-2.195-2.24-2.195zM29.333 22.978h-4.010c-1.237 0-2.24 0.984-2.24 2.195v3.93c0 1.213 1.003 2.195 2.24 2.195h4.010c1.238 0 2.24-0.982 2.24-2.195v-3.93c0-1.211-1.002-2.195-2.24-2.195zM17.59 0.224h-4.010c-1.237 0-2.24 0.982-2.24 2.195v3.93c0 1.211 1.003 2.195 2.24 2.195h4.010c1.237 0 2.24-0.984 2.24-2.197v-3.928c0-1.213-1.003-2.195-2.24-2.195zM29.043 11.926h-4.010c-1.237 0-2.24 0.982-2.24 2.195v3.928c0 1.213 1.003 2.197 2.24 2.197h4.010c1.238 0 2.24-0.984 2.24-2.197v-3.928c0-1.213-1.002-2.195-2.24-2.195zM59.112 30.224c-7.749 0-12.89-5.227-12.89-13.37 0-7.965 5.067-13.298 12.704-13.298 6.427 0 10.944 3.662 11.606 9.173h-5.325c-0.515-3.165-2.976-4.942-6.28-4.942-4.627 0-7.381 3.627-7.381 9.067 0 5.973 3.085 9.136 7.565 9.136 3.893 0 6.389-2.131 6.646-5.331v-0.357h-7.162v-3.982h12.118v3.272c-0.219 6.365-4.848 10.63-11.603 10.63zM73.926 29.867v-25.955h12.89c6.573 0 9.181 3.093 9.181 7.573 0 4.018-2.938 5.938-6.352 6.4v0.107c2.202 0.533 3.194 1.707 4.112 4.018 1.174 2.915 1.358 6.4 2.864 7.645v0.213h-5.875c-1.248-1.21-1.542-5.013-2.203-7.325-0.661-2.382-2.094-2.666-4.774-2.666h-4.701v9.99h-5.141zM79.067 15.752h7.198c3.011 0 4.406-1.707 4.406-3.912 0-2.416-1.726-3.803-4.406-3.803h-7.198v7.715zM99.411 29.867v-25.955h18.325v4.125h-13.184v6.186h11.898v4.125h-11.898v7.29h13.368v4.23h-18.509zM121.488 29.867v-25.955h18.326v4.125h-13.184v6.186h11.898v4.125h-11.898v7.29h13.366v4.23h-18.507zM143.568 29.867v-25.955h6.242l8.888 14.328c2.717 4.338 3.048 5.76 3.048 5.76h0.109l-0.072-20.088h5.141v25.955h-6.28l-9.216-14.755c-2.096-3.342-2.645-5.37-2.645-5.37h-0.074v20.125h-5.141zM170.79 29.867v-5.262h5.362v5.264h-5.362zM180.013 29.867v-25.955h5.141v10.382h12.302v-10.384h5.141v25.957h-5.141v-11.45h-12.302v11.45h-5.141zM204.795 29.867l10.282-25.955h5.582l10.429 25.955h-5.509l-2.166-5.973h-11.126l-2.166 5.973h-5.325zM213.755 19.77h8.189l-2.387-6.4c-1.653-4.73-1.69-5.582-1.69-5.582h-0.072s0 0.853-1.653 5.582l-2.387 6.4zM233.278 29.867v-25.955h12.89c6.573 0 9.181 3.093 9.181 7.573 0 4.018-2.938 5.938-6.354 6.4v0.107c2.203 0.533 3.195 1.707 4.114 4.018 1.174 2.915 1.358 6.4 2.864 7.645v0.213h-5.875c-1.25-1.21-1.542-5.013-2.205-7.325-0.661-2.382-2.093-2.666-4.773-2.666h-4.701v9.99h-5.141zM238.419 15.752h7.197c3.011 0 4.408-1.707 4.408-3.912 0-2.416-1.726-3.803-4.408-3.803h-7.197v7.715zM264.213 29.867l-9.842-25.955h5.509s5.325 14.542 5.875 16.32c0.882 2.845 1.286 4.302 1.286 4.302h0.074c-0.037 0 0.366-1.458 1.285-4.304 0.587-1.776 5.691-16.32 5.691-16.32h5.325l-9.474 25.957h-5.73zM281.522 29.867v-25.955h18.325v4.125h-13.182v6.186h11.898v4.125h-11.898v7.29h13.366v4.23h-18.509zM312.794 30.224c-6.83 0-10.942-3.592-10.942-8.926h5.875c-0.074 3.024 1.982 4.694 5.067 4.694 3.269 0 4.811-1.245 4.811-3.094 0-1.848-1.322-2.63-6.022-3.875-4.298-1.136-8.997-2.488-8.997-7.822 0-4.23 3.819-7.643 9.842-7.643 6.205 0 10.171 3.376 10.171 8.142h-5.691c-0.037-2.525-1.8-3.912-4.48-3.912-2.608 0-4.334 1.28-4.334 2.987 0 2.026 1.432 2.666 5.179 3.696 5.544 1.494 10.024 2.099 10.024 7.894 0 4.658-4.37 7.858-10.502 7.858zM331.669 29.867v-21.723h-8.117v-4.232h21.336v4.23h-8.078v21.725h-5.141z"></path>
</symbol>
</defs>
</svg>
